<?xml version="1.0" encoding="utf-8"?>
<!-- Generator: Adobe Illustrator 14.0.0, SVG Export Plug-In  -->
<!DOCTYPE svg PUBLIC "-//W3C//DTD SVG 1.1//EN" "http://www.w3.org/Graphics/SVG/1.1/DTD/svg11.dtd" [
	<!ENTITY ns_flows "http://ns.adobe.com/Flows/1.0/">
]>
<svg version="1.1"
	 xmlns="http://www.w3.org/2000/svg" xmlns:xlink="http://www.w3.org/1999/xlink" xmlns:a="http://ns.adobe.com/AdobeSVGViewerExtensions/3.0/"
	 x="0px" y="0px" width="502px" height="77px" viewBox="-5.111 -5.124 502 77" enable-background="new -5.111 -5.124 502 77"
	 xml:space="preserve">
<defs>
</defs>
<path fill="#FFFFFF" d="M161.094,66.718c1.219-0.021,29.822-0.922,29.822-34.446c0-23.554-18.664-31.563-35.759-31.28
	c-4.542,0.094-8.261,0.48-11.856,0.848c-3.448,0.357-6.719,0.697-10.637,0.8v0.788c1.417,0.475,3.348,1.993,3.348,5.415v50.097
	c-0.202,1.909-1.664,5.246-4.355,5.813v0.779c1.54,0,5.378,0.04,8.993,0.363C145.285,66.315,151.676,66.894,161.094,66.718
	 M143.78,6.002l0.672-0.062c0.039-0.006,3.742-0.355,8.34-0.355c4.639,0,8.523,0.343,11.553,1.019
	c9.458,2.102,20.166,11.503,19.219,31.065c-0.782,16.268-8.374,24.178-23.205,24.178c-2.696,0-5.247-0.229-7.504-0.434l-1.769-0.156
	c-6.782-0.544-7.306-2.874-7.306-6.112V6.002z"/>
<path fill="#FFFFFF" d="M341.754,2.467h-13.881l0.031,0.561c1.523,0.116,2.697,0.618,3.495,1.5c1.208,1.321,1.062,2.988,1.056,3.059
	l0.006,37.938c-0.623,9.772-8.752,16.305-20.23,16.305l-0.572-0.003c-13.502-0.247-19.547-8.389-19.547-16.35V6.656
	c-0.01-0.807,0.262-1.516,0.818-2.085c1.011-1.03,2.715-1.319,3.76-1.398l-0.051-0.706h-17.199l0.037,0.802
	c2.486,0.181,4.822,1.299,4.964,4.001v38.256c0,10.34,7.944,20.767,25.692,20.767c19.139,0,26.561-11.107,27.121-21.501V7.793
	c0.066-2.256,0.084-4.785,4.512-4.694L341.754,2.467z"/>
<path fill="#FFFFFF" d="M43.348,63.786c0.868-1.695,2.699-5.761,3.43-7.383l-0.652-0.28c-0.958,1.593-3.611,5.601-6.149,5.601
	H18.156c-3.037,0-5.602-2.72-5.602-5.943V7.408c0-2.756,2.925-4.168,4.164-4.639V2.467H0v0.302C1.239,3.24,4.167,4.652,4.167,7.408
	v53.089c0,1.333-0.893,3.773-4.167,4.092v0.967h40.666C40.757,65.556,42.469,65.504,43.348,63.786"/>
<path fill="#FFFFFF" d="M107.483,63.786c0.867-1.695,2.699-5.761,3.431-7.383l-0.652-0.28c-0.956,1.593-3.607,5.601-6.147,5.601
	H84.667c-3.037,0-5.605-2.72-5.605-5.943V33.596h19.582c2.31,0,3.305,1.629,3.606,2.826l1.7,0.448l3.079-9.175l-1.275-0.24
	c-0.145,0.383-0.403,0.87-0.839,1.491c-1.191,1.687-3.233,1.703-3.318,1.703H79.062V7.408c0-0.312,0.036-0.618,0.116-0.91
	l0.147-0.553h20.67c0.225,0.028,2.051,0.419,3.009,1.91c0.448,0.698,0.635,1.509,0.549,2.408l1.582,0.457l3.068-10.496L106.694,0
	c-0.768,0.779-3.004,2.467-8.005,2.467H66.508v0.302c1.239,0.471,4.17,1.883,4.17,4.639v53.089c0,1.333-0.893,3.773-4.17,4.092
	v0.967h38.299C104.892,65.556,106.604,65.504,107.483,63.786"/>
<path fill="#FFFFFF" d="M211.224,65.405c1.406-0.173,4.38-0.494,7.513-0.494c1.227,0,2.367,0.049,3.388,0.15
	c1.156,0.111,2.353,0.301,3.632,0.499c2.54,0.397,5.421,0.851,9.004,0.851c1.503,0,2.988-0.079,4.542-0.237
	c8.258-0.08,21.471-4.809,22.068-17.155c0.605-12.409-11.512-16.492-16.754-17.671l-1.73-0.392l1.496-0.961
	c2.988-1.916,8.164-6.109,9.225-12.644c0.572-3.53-0.176-6.634-2.223-9.228c-2.908-3.68-8.252-6.061-14.668-6.53
	c-4.587,0.012-8.273,0.202-11.953,0.411l-0.813,0.046c-3.433,0.193-6.983,0.394-11.287,0.414l0.012,0.564
	c1.077,0.028,3.974,0.479,4.054,4.426c0.084,4.167,0.159,38.832-0.327,50.588c-0.158,3.805-2.165,6.362-5.191,6.725L211.224,65.405z
	 M252.797,49.265c0.164,9.6-4.734,13.631-16.914,13.915c-10.393-0.182-11.331-6.765-11.371-8.775V32.958l3.791,0.039
	c2.8,0.026,6.511,0.06,7.422,0.085c0.363,0.012,0.674,0.015,0.974,0.015C247.09,34.097,252.631,39.688,252.797,49.265
	 M224.997,5.308c0.112-0.031,2.767-0.724,6.86-0.724c5.211,0,14.147,2.592,14.616,12.293c0.445,9.231-6.094,13.047-10.596,13.36
	c-1.08,0.079-2.563,0.119-4.4,0.119c-3.152,0-6.264-0.114-6.264-0.114l-0.709-0.029l-0.057-24.759L224.997,5.308z"/>
<path fill="#FFFFFF" d="M375.461,40.018c1.023,0.008,11.859,0.093,12.557,0.036c0.803,0.076,1.371,0.167,1.848,0.286
	c3.583,0.867,10.479,9.187,16.562,16.525c3.559,4.293,7.984,9.643,9.059,9.866c0.121,0.015,0.275,0.021,0.438,0.021
	c2.672,0,8.422-1.854,10.162-2.438l-0.021-1.103c-1.328-0.018-4.43-0.298-6.727-2.458c-3.111-2.935-17.914-19.892-20.85-23.262
	l-0.613-0.7l0.823-0.443c6.429-3.421,10.202-8.176,11.212-14.141c1.008-5.97-1.379-10.303-3.561-12.883
	c-3.844-4.552-10.104-7.379-16.336-7.379l-0.258,0.002c-2.51,0.006-5.447,0.165-8.287,0.315c-2.367,0.125-4.607,0.247-6.248,0.253
	l-3.98,0.017c-2.699,0.011-4.828,0.023-7.922,0.023l-0.096,0.977c1.883,0.304,3.688,1.654,3.764,4.727v50.478h-0.66l0.66,0.028
	l-0.012,0.23c-0.135,3.81-0.367,5.071-4.484,6.01l0.029,0.55h16.377V65.17c-1.395-0.199-2.486-0.749-3.24-1.628
	c-1.105-1.286-1.055-2.77-1.014-3.192c0,0,0-19.25-0.006-19.578v-0.754H375.461z M374.637,6.133l0.646-0.086
	c0.241-0.031,6.044-0.776,10.024-0.776c5.994,0,16.229,3.606,16.533,17.118c0.311,13.194-9.252,13.948-12.854,14.231
	c-1.242,0.1-3.373,0.148-6.35,0.148c-3.658,0-7.275-0.074-7.275-0.074l-0.725-0.015V6.133z"/>
<path fill="#FFFFFF" d="M491.859,2.467h-13.48c0.119,1.259,0.248,3.552-0.281,4.726l-0.119,0.181l-17.324,19.964l-0.559-0.671
	c-2.586-3.116-15.533-18.728-16.184-20.172c-0.51-1.114-0.578-2.937-0.574-3.986h-13.555V3.4c3.578,0.335,4.971,2.675,5.029,2.783
	l21.121,26.097v26.17c0,3.754-2.586,5.265-5.023,5.472v1.633l16.279,0.012v-1.52c-1.248-0.451-4.168-1.783-4.168-4.395l0.006-27.38
	L484.84,6.489c0.262-0.215,3.391-2.446,7.02-2.769V2.467z"/>
</svg>
